<?xml version="1.0" encoding="UTF-8"?>
<svg xmlns="http://www.w3.org/2000/svg" xmlns:xlink="http://www.w3.org/1999/xlink" width="16px" height="16px" viewBox="0 0 16 13" version="1.1">
<g id="surface1">
<path style=" stroke:none;fill-rule:nonzero;fill:rgb(11.372549%,60.784314%,94.117647%);fill-opacity:1;" d="M 14.320312 3.269531 C 14.328125 3.40625 14.328125 3.546875 14.328125 3.683594 C 14.328125 7.9375 11.050781 12.839844 5.058594 12.839844 C 3.289062 12.839844 1.554688 12.339844 0.0664062 11.394531 C 0.320312 11.425781 0.582031 11.441406 0.839844 11.441406 C 2.308594 11.445312 3.730469 10.957031 4.886719 10.0625 C 3.492188 10.035156 2.269531 9.136719 1.84375 7.828125 C 2.332031 7.921875 2.835938 7.902344 3.3125 7.773438 C 1.792969 7.46875 0.699219 6.148438 0.699219 4.617188 L 0.699219 4.578125 C 1.152344 4.824219 1.660156 4.964844 2.179688 4.980469 C 0.746094 4.035156 0.304688 2.152344 1.171875 0.683594 C 2.824219 2.691406 5.265625 3.914062 7.886719 4.042969 C 7.621094 2.925781 7.980469 1.753906 8.828125 0.96875 C 10.140625 -0.25 12.203125 -0.1875 13.4375 1.109375 C 14.167969 0.96875 14.867188 0.703125 15.507812 0.328125 C 15.261719 1.074219 14.753906 1.707031 14.074219 2.109375 C 14.71875 2.03125 15.351562 1.863281 15.945312 1.601562 C 15.507812 2.25 14.957031 2.8125 14.320312 3.269531 Z M 14.320312 3.269531 "/>
</g>
</svg>
