<?xml version="1.0" encoding="UTF-8"?>
<svg xmlns="http://www.w3.org/2000/svg" xmlns:xlink="http://www.w3.org/1999/xlink" width="16px" height="16px" viewBox="0 0 16 16" version="1.1">
<defs>
<linearGradient id="linear0" gradientUnits="userSpaceOnUse" x1="9.993" y1="9.993" x2="40.615" y2="40.615" gradientTransform="matrix(0.333333,0,0,0.333333,0,0)">
<stop offset="0" style="stop-color:rgb(16.470588%,64.313725%,95.686275%);stop-opacity:1;"/>
<stop offset="1" style="stop-color:rgb(0%,47.843137%,85.098039%);stop-opacity:1;"/>
</linearGradient>
</defs>
<g id="surface1">
<path style=" stroke:none;fill-rule:nonzero;fill:url(#linear0);" d="M 8 1.332031 C 4.316406 1.332031 1.332031 4.316406 1.332031 8 C 1.332031 11.683594 4.316406 14.667969 8 14.667969 C 11.683594 14.667969 14.667969 11.683594 14.667969 8 C 14.667969 4.316406 11.683594 1.332031 8 1.332031 Z M 8 1.332031 "/>
<path style=" stroke:none;fill-rule:nonzero;fill:rgb(100%,100%,100%);fill-opacity:1;" d="M 8.902344 9.765625 L 10.628906 9.765625 L 10.898438 8.015625 L 8.902344 8.015625 L 8.902344 7.054688 C 8.902344 6.328125 9.140625 5.683594 9.820312 5.683594 L 10.914062 5.683594 L 10.914062 4.152344 C 10.722656 4.128906 10.316406 4.070312 9.546875 4.070312 C 7.945312 4.070312 7.003906 4.917969 7.003906 6.847656 L 7.003906 8.015625 L 5.351562 8.015625 L 5.351562 9.765625 L 7.003906 9.765625 L 7.003906 14.585938 C 7.328125 14.632812 7.660156 14.667969 8 14.667969 C 8.308594 14.667969 8.605469 14.636719 8.902344 14.597656 Z M 8.902344 9.765625 "/>
</g>
</svg>
