<?xml version="1.0" encoding="UTF-8"?>
<svg xmlns="http://www.w3.org/2000/svg" xmlns:xlink="http://www.w3.org/1999/xlink" width="16px" height="16px" viewBox="0 0 16 16" version="1.1">
<defs>
<radialGradient id="radial0" gradientUnits="userSpaceOnUse" cx="158.429" cy="578.088" fx="158.429" fy="578.088" r="65" gradientTransform="matrix(0,-0.24024,0.223503,0,-124.896727,55.152)">
<stop offset="0" style="stop-color:rgb(100%,86.666667%,33.333333%);stop-opacity:1;"/>
<stop offset="0.1" style="stop-color:rgb(100%,86.666667%,33.333333%);stop-opacity:1;"/>
<stop offset="0.5" style="stop-color:rgb(100%,32.941176%,24.313725%);stop-opacity:1;"/>
<stop offset="1" style="stop-color:rgb(78.431373%,21.568627%,67.058824%);stop-opacity:1;"/>
</radialGradient>
<radialGradient id="radial1" gradientUnits="userSpaceOnUse" cx="147.694" cy="473.455" fx="147.694" fy="473.455" r="65" gradientTransform="matrix(0.0210836,0.105299,-0.434158,0.0869309,199.921455,-55.453697)">
<stop offset="0" style="stop-color:rgb(21.568627%,44.313725%,78.431373%);stop-opacity:1;"/>
<stop offset="0.128" style="stop-color:rgb(21.568627%,44.313725%,78.431373%);stop-opacity:1;"/>
<stop offset="1" style="stop-color:rgb(40%,0%,100%);stop-opacity:0;"/>
</radialGradient>
</defs>
<g id="surface1">
<path style=" stroke:none;fill-rule:nonzero;fill:url(#radial0);" d="M 8.003906 0.121094 C 4.714844 0.121094 3.753906 0.125 3.566406 0.140625 C 2.890625 0.195312 2.46875 0.300781 2.011719 0.53125 C 1.660156 0.707031 1.382812 0.910156 1.105469 1.191406 C 0.605469 1.710938 0.304688 2.351562 0.195312 3.109375 C 0.140625 3.476562 0.125 3.554688 0.121094 5.4375 C 0.121094 6.0625 0.121094 6.890625 0.121094 7.996094 C 0.121094 11.285156 0.125 12.246094 0.140625 12.429688 C 0.195312 13.089844 0.296875 13.5 0.515625 13.953125 C 0.933594 14.820312 1.730469 15.46875 2.667969 15.710938 C 2.992188 15.796875 3.351562 15.839844 3.8125 15.863281 C 4.007812 15.871094 5.996094 15.878906 7.988281 15.878906 C 9.976562 15.878906 11.96875 15.875 12.15625 15.867188 C 12.691406 15.839844 13 15.796875 13.34375 15.710938 C 14.289062 15.464844 15.070312 14.828125 15.496094 13.949219 C 15.710938 13.507812 15.816406 13.078125 15.867188 12.457031 C 15.878906 12.320312 15.882812 10.15625 15.882812 7.996094 C 15.882812 5.832031 15.878906 3.671875 15.867188 3.535156 C 15.816406 2.902344 15.707031 2.476562 15.488281 2.027344 C 15.304688 1.660156 15.105469 1.386719 14.8125 1.105469 C 14.292969 0.605469 13.652344 0.304688 12.894531 0.195312 C 12.527344 0.140625 12.453125 0.125 10.570312 0.121094 Z M 8.003906 0.121094 "/>
<path style=" stroke:none;fill-rule:nonzero;fill:url(#radial1);" d="M 8.003906 0.121094 C 4.714844 0.121094 3.753906 0.125 3.566406 0.140625 C 2.890625 0.195312 2.46875 0.300781 2.011719 0.53125 C 1.660156 0.707031 1.382812 0.910156 1.105469 1.191406 C 0.605469 1.710938 0.304688 2.351562 0.195312 3.109375 C 0.140625 3.476562 0.125 3.554688 0.121094 5.4375 C 0.121094 6.0625 0.121094 6.890625 0.121094 7.996094 C 0.121094 11.285156 0.125 12.246094 0.140625 12.429688 C 0.195312 13.089844 0.296875 13.5 0.515625 13.953125 C 0.933594 14.820312 1.730469 15.46875 2.667969 15.710938 C 2.992188 15.796875 3.351562 15.839844 3.8125 15.863281 C 4.007812 15.871094 5.996094 15.878906 7.988281 15.878906 C 9.976562 15.878906 11.96875 15.875 12.15625 15.867188 C 12.691406 15.839844 13 15.796875 13.34375 15.710938 C 14.289062 15.464844 15.070312 14.828125 15.496094 13.949219 C 15.710938 13.507812 15.816406 13.078125 15.867188 12.457031 C 15.878906 12.320312 15.882812 10.15625 15.882812 7.996094 C 15.882812 5.832031 15.878906 3.671875 15.867188 3.535156 C 15.816406 2.902344 15.707031 2.476562 15.488281 2.027344 C 15.304688 1.660156 15.105469 1.386719 14.8125 1.105469 C 14.292969 0.605469 13.652344 0.304688 12.894531 0.195312 C 12.527344 0.140625 12.453125 0.125 10.570312 0.121094 Z M 8.003906 0.121094 "/>
<path style=" stroke:none;fill-rule:nonzero;fill:rgb(100%,100%,100%);fill-opacity:1;" d="M 8 2.183594 C 6.421875 2.183594 6.222656 2.1875 5.601562 2.21875 C 4.980469 2.246094 4.558594 2.34375 4.1875 2.488281 C 3.808594 2.636719 3.480469 2.835938 3.160156 3.15625 C 2.835938 3.480469 2.636719 3.804688 2.488281 4.1875 C 2.34375 4.558594 2.246094 4.980469 2.21875 5.601562 C 2.1875 6.222656 2.183594 6.417969 2.183594 8 C 2.183594 9.582031 2.1875 9.777344 2.21875 10.398438 C 2.246094 11.019531 2.34375 11.441406 2.488281 11.808594 C 2.636719 12.191406 2.835938 12.519531 3.160156 12.839844 C 3.480469 13.164062 3.804688 13.363281 4.1875 13.511719 C 4.558594 13.65625 4.980469 13.753906 5.601562 13.78125 C 6.222656 13.8125 6.417969 13.816406 8 13.816406 C 9.578125 13.816406 9.777344 13.8125 10.398438 13.78125 C 11.019531 13.753906 11.441406 13.65625 11.8125 13.511719 C 12.195312 13.363281 12.519531 13.164062 12.839844 12.839844 C 13.164062 12.519531 13.363281 12.191406 13.511719 11.8125 C 13.65625 11.441406 13.753906 11.019531 13.78125 10.398438 C 13.8125 9.777344 13.816406 9.582031 13.816406 8 C 13.816406 6.417969 13.8125 6.222656 13.78125 5.601562 C 13.753906 4.980469 13.65625 4.558594 13.511719 4.1875 C 13.363281 3.804688 13.164062 3.480469 12.839844 3.15625 C 12.515625 2.835938 12.195312 2.636719 11.8125 2.488281 C 11.441406 2.34375 11.015625 2.246094 10.398438 2.21875 C 9.777344 2.1875 9.578125 2.183594 8 2.183594 Z M 7.480469 3.230469 C 7.632812 3.230469 7.804688 3.230469 8 3.230469 C 9.554688 3.230469 9.738281 3.234375 10.351562 3.265625 C 10.917969 3.289062 11.226562 3.382812 11.433594 3.464844 C 11.703125 3.570312 11.898438 3.695312 12.101562 3.898438 C 12.304688 4.101562 12.429688 4.296875 12.535156 4.570312 C 12.617188 4.773438 12.710938 5.082031 12.734375 5.648438 C 12.765625 6.261719 12.769531 6.445312 12.769531 8 C 12.769531 9.550781 12.765625 9.734375 12.734375 10.347656 C 12.710938 10.917969 12.617188 11.222656 12.535156 11.429688 C 12.429688 11.699219 12.304688 11.894531 12.101562 12.097656 C 11.898438 12.300781 11.703125 12.425781 11.433594 12.53125 C 11.226562 12.613281 10.917969 12.707031 10.351562 12.734375 C 9.738281 12.761719 9.554688 12.765625 8 12.765625 C 6.445312 12.765625 6.261719 12.761719 5.648438 12.734375 C 5.082031 12.707031 4.773438 12.613281 4.570312 12.53125 C 4.296875 12.425781 4.105469 12.300781 3.898438 12.097656 C 3.695312 11.894531 3.570312 11.699219 3.464844 11.429688 C 3.386719 11.222656 3.289062 10.914062 3.265625 10.347656 C 3.238281 9.734375 3.230469 9.550781 3.230469 7.996094 C 3.230469 6.445312 3.238281 6.261719 3.265625 5.648438 C 3.289062 5.078125 3.386719 4.773438 3.464844 4.566406 C 3.570312 4.296875 3.695312 4.101562 3.898438 3.898438 C 4.105469 3.695312 4.296875 3.566406 4.570312 3.460938 C 4.773438 3.382812 5.082031 3.289062 5.648438 3.261719 C 6.1875 3.238281 6.394531 3.230469 7.480469 3.230469 Z M 11.105469 4.195312 C 10.722656 4.195312 10.40625 4.507812 10.40625 4.894531 C 10.40625 5.28125 10.722656 5.59375 11.105469 5.59375 C 11.492188 5.59375 11.804688 5.28125 11.804688 4.894531 C 11.804688 4.507812 11.492188 4.195312 11.105469 4.195312 Z M 8 5.011719 C 6.351562 5.011719 5.011719 6.351562 5.011719 8 C 5.011719 9.648438 6.351562 10.988281 8 10.988281 C 9.652344 10.988281 10.988281 9.648438 10.988281 8 C 10.988281 6.351562 9.652344 5.011719 8 5.011719 Z M 8 6.0625 C 9.070312 6.0625 9.941406 6.929688 9.941406 8 C 9.941406 9.070312 9.070312 9.9375 8 9.9375 C 6.929688 9.9375 6.0625 9.070312 6.0625 8 C 6.0625 6.929688 6.929688 6.0625 8 6.0625 Z M 8 6.0625 "/>
</g>
</svg>
